<?xml version="1.0" encoding="UTF-8"?><svg id="_レイヤー_6" xmlns="http://www.w3.org/2000/svg" viewBox="0 0 100 100"><defs><style>.cls-1{opacity:.34;stroke:#8db1c4;stroke-miterlimit:10;stroke-width:.16px;}.cls-1,.cls-2,.cls-3{fill:#8db1c4;}.cls-4{opacity:.68;}.cls-3{opacity:.58;}</style></defs><g class="cls-4"><path class="cls-1" d="M82.55,32.34c6.02,13.61,6.69,30.2-1.94,43.26-4.87,7.74-12.83,13.5-20.8,13.5-13.94.22-28.77-5.75-38.5-16.82C3.38,52.14,17.33,22.93,39.01,14.08c14.6-6.2,31.2,4.87,41.83,15.75.61.77,1.19,1.61,1.71,2.51Z"/><path class="cls-3" d="M72.76,37.88c4.21,9.5,4.67,21.09-1.36,30.21-3.4,5.41-8.96,9.43-14.53,9.43-9.74.15-20.09-4.02-26.89-11.74-12.52-14.06-2.78-34.46,12.36-40.64,10.2-4.33,21.79,3.4,29.21,11,.43.54.83,1.12,1.2,1.75Z"/><path class="cls-3" d="M65.18,42.16c2.8,6.32,3.11,14.04-.9,20.11-2.26,3.6-5.97,6.27-9.67,6.27-6.48.1-13.37-2.67-17.9-7.82-8.33-9.36-1.85-22.94,8.23-27.05,6.79-2.88,14.5,2.26,19.44,7.32.28.36.55.75.8,1.17Z"/><path class="cls-2" d="M55.8,47.47c1.06,2.39,1.18,5.31-.34,7.61-.86,1.36-2.26,2.37-3.66,2.37-2.45.04-5.06-1.01-6.77-2.96-3.15-3.54-.7-8.68,3.11-10.24,2.57-1.09,5.49.86,7.36,2.77.11.14.21.28.3.44Z"/></g></svg>